# xmcd CD database file
#
# Track frame offsets:
#	150
#	14312
#	28237
#	43050
#	55775
#	66537
#	78600
#	91212
#	105175
#	116287
#
# Disc length: 1727 seconds
#
# Revision: 0
# Processed by: cddbd v1.5.1PL0 Copyright (c) Steve Scherf et al.
# Submitted via: CDex 1.51
#
DISCID=7a06bd0a
DTITLE=Frankie Carle and His Orchestra - Sunrise Serenade
DYEAR=1997
DGENRE=Jazz
TTITLE0=Sunrise Serenade [Theme Song]
TTITLE1=A Little On The Lonely Side
TTITLE2=We Could Make Such Beautiful Music
TTITLE3=Saturday Night [Is The Loneliest Night Of The Week]
TTITLE4=Carle Meets Mozart
TTITLE5=Sault Ste. Marie [Soo Sainte Marie]
TTITLE6=Oh! What It Seemed To Be
TTITLE7=Right As The Rain
TTITLE8=The Glow-Worm
TTITLE9=Dreamy Lullaby
EXTD=YEAR: 1997
EXTT0=
EXTT1=
EXTT2=
EXTT3=
EXTT4=
EXTT5=
EXTT6=
EXTT7=
EXTT8=
EXTT9=
PLAYORDER=
